<svg xmlns="http://www.w3.org/2000/svg" xmlns:xlink="http://www.w3.org/1999/xlink" width="60" zoomAndPan="magnify" viewBox="0 0 45 44.999999" height="60" preserveAspectRatio="xMidYMid meet" version="1.0"><defs><clipPath id="4b7e6f228a"><path d="M 0 2.25 L 45 2.25 L 45 42.75 L 0 42.75 Z M 0 2.25 " clip-rule="nonzero"/></clipPath><clipPath id="2d291b7b59"><path d="M 4.5 2.25 L 40.5 2.25 C 42.984375 2.25 45 4.265625 45 6.75 L 45 38.25 C 45 40.734375 42.984375 42.75 40.5 42.75 L 4.5 42.75 C 2.015625 42.75 0 40.734375 0 38.25 L 0 6.75 C 0 4.265625 2.015625 2.25 4.5 2.25 Z M 4.5 2.25 " clip-rule="nonzero"/></clipPath><clipPath id="286112e02d"><path d="M 7 7 L 37 7 L 37 38 L 7 38 Z M 7 7 " clip-rule="nonzero"/></clipPath><clipPath id="c42cf9bd05"><path d="M 39.554688 16.714844 L 19.667969 40.167969 L 5.367188 28.042969 L 25.253906 4.589844 Z M 39.554688 16.714844 " clip-rule="nonzero"/></clipPath><clipPath id="03b210de20"><path d="M 39.554688 16.714844 L 19.667969 40.167969 L 5.367188 28.042969 L 25.253906 4.589844 Z M 39.554688 16.714844 " clip-rule="nonzero"/></clipPath></defs><g clip-path="url(#4b7e6f228a)"><g clip-path="url(#2d291b7b59)"><path fill="#e6e6e6" d="M 0 2.25 L 44.929688 2.25 L 44.929688 42.75 L 0 42.75 Z M 0 2.25 " fill-opacity="1" fill-rule="nonzero"/><path stroke-linecap="butt" transform="matrix(0.75, 0, 0, 0.75, 0.00000137174, 2.25)" fill="none" stroke-linejoin="miter" d="M 5.999998 0.000000191667 L 53.999998 0.000000191667 C 57.312498 0.000000191667 59.999998 2.6875 59.999998 6 L 59.999998 48 C 59.999998 51.3125 57.312498 54 53.999998 54 L 5.999998 54 C 2.687498 54 -0.00000182899 51.3125 -0.00000182899 48 L -0.00000182899 6 C -0.00000182899 2.6875 2.687498 0.000000191667 5.999998 0.000000191667 Z M 5.999998 0.000000191667 " stroke="#000000" stroke-width="6" stroke-opacity="1" stroke-miterlimit="4"/></g></g><g clip-path="url(#286112e02d)"><g clip-path="url(#c42cf9bd05)"><g clip-path="url(#03b210de20)"><path fill="#ffffff" d="M 33.496094 19.3125 C 34.457031 20.691406 34.632812 22.515625 33.5625 23.777344 L 32.21875 22.632812 C 32.621094 22.160156 32.699219 21.25 32.035156 20.304688 L 32.023438 20.289062 L 32.015625 20.273438 C 31.488281 19.441406 31.394531 18.289062 32.15625 17.507812 L 35.640625 13.394531 L 36.988281 14.539062 L 33.480469 18.675781 L 33.425781 18.730469 C 33.402344 18.757812 33.371094 18.804688 33.367188 18.902344 C 33.363281 19 33.394531 19.144531 33.496094 19.3125 Z M 28.347656 24.714844 L 17.378906 37.648438 L 16.035156 36.507812 L 27.023438 23.546875 L 27.046875 23.519531 L 27.074219 23.492188 C 27.152344 23.414062 27.25 23.183594 27.050781 22.84375 C 26.089844 21.417969 25.988281 19.5625 27.082031 18.277344 L 28.425781 19.421875 C 27.960938 19.96875 27.886719 20.9375 28.523438 21.867188 L 28.546875 21.90625 C 29.074219 22.769531 29.105469 23.929688 28.347656 24.714844 Z M 13.933594 24.734375 C 14.976562 25.238281 15.855469 25.011719 16.246094 24.546875 L 17.59375 25.6875 C 16.527344 26.945312 14.703125 27.058594 13.1875 26.335938 C 13.007812 26.261719 12.859375 26.253906 12.765625 26.273438 C 12.671875 26.292969 12.632812 26.328125 12.613281 26.355469 L 12.566406 26.417969 L 9.039062 30.574219 L 7.695312 29.433594 L 11.195312 25.300781 C 11.84375 24.421875 13 24.335938 13.898438 24.71875 L 13.914062 24.726562 Z M 19.839844 20.429688 C 19.191406 21.308594 18.035156 21.378906 17.148438 20.996094 L 17.132812 20.988281 L 17.113281 20.976562 C 16.066406 20.46875 15.203125 20.695312 14.832031 21.136719 L 13.484375 19.996094 C 14.542969 18.742188 16.363281 18.65625 17.867188 19.382812 C 18.046875 19.457031 18.195312 19.464844 18.289062 19.445312 C 18.378906 19.429688 18.410156 19.394531 18.421875 19.378906 L 18.445312 19.34375 L 18.46875 19.316406 L 28.574219 7.402344 L 29.917969 8.542969 Z M 19.839844 20.429688 " fill-opacity="1" fill-rule="evenodd"/></g></g></g></svg>